<svg xmlns="http://www.w3.org/2000/svg" xmlns:xlink="http://www.w3.org/1999/xlink" width="2000" zoomAndPan="magnify" viewBox="0 0 1500 287.999989" height="384" preserveAspectRatio="xMidYMid meet" version="1.0"><defs><g/><clipPath id="272444e0e1"><path d="M 0.800781 0 L 1208.71875 0 L 1208.71875 242 L 0.800781 242 Z M 0.800781 0 " clip-rule="nonzero"/></clipPath><clipPath id="1082ec2d68"><rect x="0" width="1209" y="0" height="242"/></clipPath><clipPath id="a73fe6c460"><rect x="0" width="631" y="0" height="70"/></clipPath><clipPath id="fc8192157d"><rect x="0" width="1209" y="0" height="288"/></clipPath></defs><g transform="matrix(1, 0, 0, 1, 154, 0)"><g clip-path="url(#fc8192157d)"><g clip-path="url(#272444e0e1)"><g><g clip-path="url(#1082ec2d68)"><g fill="#ffffff" fill-opacity="1"><g transform="translate(3.519574, 162.468739)"><g><path d="M 12.765625 0 L 12.765625 -120.375 L 98.15625 -120.375 L 98.15625 -95.703125 L 43.21875 -95.703125 L 43.21875 -73.140625 L 89.765625 -73.140625 L 89.765625 -48.46875 L 43.21875 -48.46875 L 43.21875 -24.671875 L 98.15625 -24.671875 L 98.15625 0 Z M 12.765625 0 "/></g></g></g><g fill="#ffffff" fill-opacity="1"><g transform="translate(128.62031, 162.468739)"><g><path d="M 12.765625 -120.375 L 55.296875 -120.375 C 73.023438 -120.375 85.675781 -118.59375 93.25 -115.03125 C 100.832031 -111.476562 105.554688 -105.878906 107.421875 -98.234375 C 109.296875 -90.597656 110.234375 -77.914062 110.234375 -60.1875 C 110.234375 -42.457031 109.296875 -29.769531 107.421875 -22.125 C 105.554688 -14.488281 100.832031 -8.890625 93.25 -5.328125 C 85.675781 -1.773438 73.023438 0 55.296875 0 L 12.765625 0 Z M 54.59375 -24.671875 C 63.570312 -24.671875 69.546875 -25.222656 72.515625 -26.328125 C 75.492188 -27.441406 77.363281 -30.125 78.125 -34.375 C 78.882812 -38.632812 79.265625 -47.238281 79.265625 -60.1875 C 79.265625 -73.019531 78.851562 -81.59375 78.03125 -85.90625 C 77.21875 -90.226562 75.320312 -92.941406 72.34375 -94.046875 C 69.375 -95.148438 63.457031 -95.703125 54.59375 -95.703125 L 43.046875 -95.703125 L 43.046875 -24.671875 Z M 54.59375 -24.671875 "/></g></g></g><g fill="#ffffff" fill-opacity="1"><g transform="translate(265.968283, 162.468739)"><g><path d="M 108.3125 -120.375 L 108.3125 -54.421875 C 108.3125 -38.316406 107.347656 -26.5625 105.421875 -19.15625 C 103.492188 -11.75 99.203125 -6.46875 92.546875 -3.3125 C 85.898438 -0.164062 75.054688 1.40625 60.015625 1.40625 C 44.960938 1.40625 34.113281 -0.164062 27.46875 -3.3125 C 20.820312 -6.46875 16.535156 -11.75 14.609375 -19.15625 C 12.679688 -26.5625 11.71875 -38.316406 11.71875 -54.421875 L 11.71875 -120.375 L 42.171875 -120.375 L 42.171875 -47.9375 C 42.171875 -39.65625 42.460938 -33.941406 43.046875 -30.796875 C 43.628906 -27.648438 45.085938 -25.550781 47.421875 -24.5 C 49.753906 -23.445312 53.953125 -22.921875 60.015625 -22.921875 C 66.078125 -22.921875 70.273438 -23.445312 72.609375 -24.5 C 74.941406 -25.550781 76.398438 -27.648438 76.984375 -30.796875 C 77.566406 -33.941406 77.859375 -39.65625 77.859375 -47.9375 L 77.859375 -120.375 Z M 108.3125 -120.375 "/></g></g></g><g fill="#ffffff" fill-opacity="1"><g transform="translate(403.66616, 162.468739)"><g><path d="M 12.765625 0 L 12.765625 -120.375 L 94.65625 -120.375 L 94.65625 -95.703125 L 43.21875 -95.703125 L 43.21875 -69.28125 L 88.015625 -69.28125 L 88.015625 -44.609375 L 43.21875 -44.609375 L 43.21875 0 Z M 12.765625 0 "/></g></g></g><g fill="#ffffff" fill-opacity="1"><g transform="translate(522.118394, 162.468739)"><g><path d="M 12.421875 0 L 12.421875 -120.375 L 42.875 -120.375 L 42.875 0 Z M 12.421875 0 "/></g></g></g><g fill="#ffffff" fill-opacity="1"><g transform="translate(594.905903, 162.468739)"><g><path d="M 83.984375 0 L 42.34375 -68.765625 L 41.46875 -68.765625 L 41.46875 0 L 12.421875 0 L 12.421875 -120.375 L 43.734375 -120.375 L 82.40625 -57.921875 L 83.28125 -57.921875 L 83.28125 -120.375 L 112.5 -120.375 L 112.5 0 Z M 83.984375 0 "/></g></g></g><g fill="#ffffff" fill-opacity="1"><g transform="translate(737.327727, 162.468739)"><g><path d="M 12.765625 -120.375 L 55.296875 -120.375 C 73.023438 -120.375 85.675781 -118.59375 93.25 -115.03125 C 100.832031 -111.476562 105.554688 -105.878906 107.421875 -98.234375 C 109.296875 -90.597656 110.234375 -77.914062 110.234375 -60.1875 C 110.234375 -42.457031 109.296875 -29.769531 107.421875 -22.125 C 105.554688 -14.488281 100.832031 -8.890625 93.25 -5.328125 C 85.675781 -1.773438 73.023438 0 55.296875 0 L 12.765625 0 Z M 54.59375 -24.671875 C 63.570312 -24.671875 69.546875 -25.222656 72.515625 -26.328125 C 75.492188 -27.441406 77.363281 -30.125 78.125 -34.375 C 78.882812 -38.632812 79.265625 -47.238281 79.265625 -60.1875 C 79.265625 -73.019531 78.851562 -81.59375 78.03125 -85.90625 C 77.21875 -90.226562 75.320312 -92.941406 72.34375 -94.046875 C 69.375 -95.148438 63.457031 -95.703125 54.59375 -95.703125 L 43.046875 -95.703125 L 43.046875 -24.671875 Z M 54.59375 -24.671875 "/></g></g></g><g fill="#ffffff" fill-opacity="1"><g transform="translate(874.675699, 162.468739)"><g><path d="M 12.765625 0 L 12.765625 -120.375 L 98.15625 -120.375 L 98.15625 -95.703125 L 43.21875 -95.703125 L 43.21875 -73.140625 L 89.765625 -73.140625 L 89.765625 -48.46875 L 43.21875 -48.46875 L 43.21875 -24.671875 L 98.15625 -24.671875 L 98.15625 0 Z M 12.765625 0 "/></g></g></g><g fill="#ffffff" fill-opacity="1"><g transform="translate(999.776435, 162.468739)"><g><path d="M 80.140625 0 L 64.390625 -42.171875 L 43.21875 -42.171875 L 43.21875 0 L 12.765625 0 L 12.765625 -120.375 L 70.515625 -120.375 C 81.597656 -120.375 89.96875 -118.828125 95.625 -115.734375 C 101.28125 -112.648438 105.007812 -108.394531 106.8125 -102.96875 C 108.625 -97.539062 109.53125 -90.28125 109.53125 -81.1875 C 109.53125 -72.789062 108.453125 -65.5 106.296875 -59.3125 C 104.140625 -53.132812 99.851562 -48.644531 93.4375 -45.84375 L 111.984375 0 Z M 58.96875 -66.3125 C 65.257812 -66.3125 69.71875 -66.660156 72.34375 -67.359375 C 74.96875 -68.054688 76.6875 -69.367188 77.5 -71.296875 C 78.320312 -73.222656 78.734375 -76.460938 78.734375 -81.015625 C 78.734375 -85.679688 78.382812 -88.972656 77.6875 -90.890625 C 76.988281 -92.816406 75.328125 -94.128906 72.703125 -94.828125 C 70.078125 -95.535156 65.613281 -95.890625 59.3125 -95.890625 L 43.21875 -95.890625 L 43.21875 -66.3125 Z M 58.96875 -66.3125 "/></g></g></g><g fill="#ffffff" fill-opacity="1"><g transform="translate(1136.07464, 162.468739)"><g><path d="M 11.203125 0 L 11.203125 -25.890625 L 41.125 -25.890625 L 41.125 0 Z M 11.203125 0 "/></g></g></g></g></g></g><g transform="matrix(1, 0, 0, 1, 292, 218)"><g clip-path="url(#a73fe6c460)"><g fill="#ffffff" fill-opacity="1"><g transform="translate(3.373058, 57.093679)"><g><path d="M 32.265625 -20.984375 C 34.929688 -20.398438 36.988281 -19.242188 38.4375 -17.515625 C 39.894531 -15.796875 40.625 -13.582031 40.625 -10.875 C 40.625 -7.382812 39.335938 -4.695312 36.765625 -2.8125 C 34.191406 -0.9375 30.382812 0 25.34375 0 L 6.625 0 L 6.625 -40.6875 L 24.1875 -40.6875 C 28.71875 -40.6875 32.234375 -39.773438 34.734375 -37.953125 C 37.234375 -36.128906 38.484375 -33.550781 38.484375 -30.21875 C 38.484375 -27.976562 37.929688 -26.070312 36.828125 -24.5 C 35.722656 -22.925781 34.203125 -21.753906 32.265625 -20.984375 Z M 10.921875 -37.140625 L 10.921875 -22.375 L 23.890625 -22.375 C 27.179688 -22.375 29.71875 -23.003906 31.5 -24.265625 C 33.28125 -25.523438 34.171875 -27.359375 34.171875 -29.765625 C 34.171875 -32.160156 33.28125 -33.988281 31.5 -35.25 C 29.71875 -36.507812 27.179688 -37.140625 23.890625 -37.140625 Z M 25.28125 -3.546875 C 28.925781 -3.546875 31.675781 -4.164062 33.53125 -5.40625 C 35.394531 -6.644531 36.328125 -8.582031 36.328125 -11.21875 C 36.328125 -16.289062 32.644531 -18.828125 25.28125 -18.828125 L 10.921875 -18.828125 L 10.921875 -3.546875 Z M 25.28125 -3.546875 "/></g></g></g><g fill="#ffffff" fill-opacity="1"><g transform="translate(70.449505, 57.093679)"><g><path d="M 20.578125 -14.0625 L 20.578125 0 L 16.328125 0 L 16.328125 -14.0625 L 0.0625 -40.6875 L 4.65625 -40.6875 L 18.59375 -17.84375 L 32.546875 -40.6875 L 36.84375 -40.6875 Z M 20.578125 -14.0625 "/></g></g></g><g fill="#ffffff" fill-opacity="1"><g transform="translate(130.609031, 57.093679)"><g/></g></g><g fill="#ffffff" fill-opacity="1"><g transform="translate(169.08784, 57.093679)"><g><path d="M 62.484375 -40.6875 L 48.765625 0 L 44.234375 0 L 32.3125 -34.703125 L 20.34375 0 L 15.875 0 L 2.15625 -40.6875 L 6.5625 -40.6875 L 18.3125 -5.703125 L 30.453125 -40.6875 L 34.46875 -40.6875 L 46.4375 -5.515625 L 58.359375 -40.6875 Z M 62.484375 -40.6875 "/></g></g></g><g fill="#ffffff" fill-opacity="1"><g transform="translate(256.915001, 57.093679)"><g><path d="M 32.140625 -10.875 L 9.46875 -10.875 L 4.59375 0 L 0.109375 0 L 18.71875 -40.6875 L 22.953125 -40.6875 L 41.5625 0 L 37.03125 0 Z M 30.578125 -14.359375 L 20.8125 -36.21875 L 11.046875 -14.359375 Z M 30.578125 -14.359375 "/></g></g></g><g fill="#ffffff" fill-opacity="1"><g transform="translate(321.840819, 57.093679)"><g><path d="M 20.578125 -14.0625 L 20.578125 0 L 16.328125 0 L 16.328125 -14.0625 L 0.0625 -40.6875 L 4.65625 -40.6875 L 18.59375 -17.84375 L 32.546875 -40.6875 L 36.84375 -40.6875 Z M 20.578125 -14.0625 "/></g></g></g><g fill="#ffffff" fill-opacity="1"><g transform="translate(382.000345, 57.093679)"><g><path d="M 17.84375 0.34375 C 14.820312 0.34375 11.925781 -0.140625 9.15625 -1.109375 C 6.382812 -2.078125 4.242188 -3.351562 2.734375 -4.9375 L 4.421875 -8.25 C 5.890625 -6.78125 7.84375 -5.585938 10.28125 -4.671875 C 12.726562 -3.765625 15.25 -3.3125 17.84375 -3.3125 C 21.488281 -3.3125 24.21875 -3.976562 26.03125 -5.3125 C 27.851562 -6.65625 28.765625 -8.390625 28.765625 -10.515625 C 28.765625 -12.148438 28.269531 -13.453125 27.28125 -14.421875 C 26.300781 -15.390625 25.09375 -16.132812 23.65625 -16.65625 C 22.21875 -17.175781 20.222656 -17.75 17.671875 -18.375 C 14.609375 -19.144531 12.164062 -19.890625 10.34375 -20.609375 C 8.519531 -21.328125 6.957031 -22.421875 5.65625 -23.890625 C 4.363281 -25.359375 3.71875 -27.351562 3.71875 -29.875 C 3.71875 -31.925781 4.257812 -33.796875 5.34375 -35.484375 C 6.425781 -37.171875 8.09375 -38.515625 10.34375 -39.515625 C 12.59375 -40.523438 15.382812 -41.03125 18.71875 -41.03125 C 21.039062 -41.03125 23.316406 -40.710938 25.546875 -40.078125 C 27.773438 -39.441406 29.703125 -38.5625 31.328125 -37.4375 L 29.875 -34 C 28.164062 -35.125 26.34375 -35.96875 24.40625 -36.53125 C 22.46875 -37.09375 20.570312 -37.375 18.71875 -37.375 C 15.15625 -37.375 12.472656 -36.6875 10.671875 -35.3125 C 8.867188 -33.9375 7.96875 -32.164062 7.96875 -30 C 7.96875 -28.363281 8.457031 -27.050781 9.4375 -26.0625 C 10.425781 -25.082031 11.664062 -24.328125 13.15625 -23.796875 C 14.65625 -23.273438 16.664062 -22.707031 19.1875 -22.09375 C 22.164062 -21.351562 24.570312 -20.625 26.40625 -19.90625 C 28.25 -19.1875 29.8125 -18.097656 31.09375 -16.640625 C 32.375 -15.191406 33.015625 -13.226562 33.015625 -10.75 C 33.015625 -8.695312 32.460938 -6.828125 31.359375 -5.140625 C 30.253906 -3.453125 28.554688 -2.113281 26.265625 -1.125 C 23.984375 -0.144531 21.175781 0.34375 17.84375 0.34375 Z M 17.84375 0.34375 "/></g></g></g><g fill="#ffffff" fill-opacity="1"><g transform="translate(440.99738, 57.093679)"><g><path d="M 14.53125 -36.96875 L 0.234375 -36.96875 L 0.234375 -40.6875 L 33.125 -40.6875 L 33.125 -36.96875 L 18.828125 -36.96875 L 18.828125 0 L 14.53125 0 Z M 14.53125 -36.96875 "/></g></g></g><g fill="#ffffff" fill-opacity="1"><g transform="translate(497.61124, 57.093679)"><g><path d="M 32.140625 -10.875 L 9.46875 -10.875 L 4.59375 0 L 0.109375 0 L 18.71875 -40.6875 L 22.953125 -40.6875 L 41.5625 0 L 37.03125 0 Z M 30.578125 -14.359375 L 20.8125 -36.21875 L 11.046875 -14.359375 Z M 30.578125 -14.359375 "/></g></g></g><g fill="#ffffff" fill-opacity="1"><g transform="translate(562.537058, 57.093679)"><g><path d="M 34.40625 0 L 25.109375 -13.078125 C 24.066406 -12.960938 22.984375 -12.90625 21.859375 -12.90625 L 10.921875 -12.90625 L 10.921875 0 L 6.625 0 L 6.625 -40.6875 L 21.859375 -40.6875 C 27.046875 -40.6875 31.113281 -39.445312 34.0625 -36.96875 C 37.007812 -34.488281 38.484375 -31.078125 38.484375 -26.734375 C 38.484375 -23.554688 37.675781 -20.875 36.0625 -18.6875 C 34.457031 -16.5 32.160156 -14.921875 29.171875 -13.953125 L 39.125 0 Z M 21.734375 -16.5625 C 25.765625 -16.5625 28.84375 -17.453125 30.96875 -19.234375 C 33.101562 -21.015625 34.171875 -23.515625 34.171875 -26.734375 C 34.171875 -30.023438 33.101562 -32.550781 30.96875 -34.3125 C 28.84375 -36.082031 25.765625 -36.96875 21.734375 -36.96875 L 10.921875 -36.96875 L 10.921875 -16.5625 Z M 21.734375 -16.5625 "/></g></g></g></g></g></g></g></svg>