<svg xmlns="http://www.w3.org/2000/svg" xmlns:xlink="http://www.w3.org/1999/xlink" width="2000" zoomAndPan="magnify" viewBox="0 0 1500 1499.999933" height="2000" preserveAspectRatio="xMidYMid meet" version="1.0"><defs><g/></defs><g fill="#000000" fill-opacity="1"><g transform="translate(316.500002, 936.992299)"><g><path d="M 95.703125 -248.109375 L 48.71875 -44.890625 C 45.695312 -32.359375 44.1875 -24.351562 44.1875 -20.875 C 44.1875 -19.25 44.535156 -17.914062 45.234375 -16.875 C 45.929688 -15.832031 46.742188 -15.3125 47.671875 -15.3125 C 52.078125 -15.3125 59.15625 -22.15625 68.90625 -35.84375 L 73.078125 -32.015625 C 65.890625 -22.035156 58.46875 -13.507812 50.8125 -6.4375 C 43.15625 0.632812 36.191406 4.171875 29.921875 4.171875 C 25.984375 4.171875 22.738281 2.722656 20.1875 -0.171875 C 17.632812 -3.078125 16.359375 -6.734375 16.359375 -11.140625 C 16.359375 -14.847656 17.050781 -19.601562 18.4375 -25.40625 L 59.859375 -205.65625 C 60.316406 -207.28125 60.953125 -210.179688 61.765625 -214.359375 C 62.578125 -218.535156 62.984375 -222.015625 62.984375 -224.796875 C 62.984375 -227.347656 62.113281 -229.492188 60.375 -231.234375 C 58.632812 -232.972656 56.488281 -233.84375 53.9375 -233.84375 C 52.082031 -233.84375 48.367188 -233.492188 42.796875 -232.796875 L 44.1875 -238.71875 L 90.125 -248.109375 Z M 95.703125 -248.109375 "/></g></g></g><g fill="#000000" fill-opacity="1"><g transform="translate(378.439507, 936.992299)"><g><path d="M 94.65625 -157.984375 C 102.539062 -157.984375 108.976562 -155.71875 113.96875 -151.1875 C 118.957031 -146.664062 121.453125 -140.8125 121.453125 -133.625 C 121.453125 -126.195312 118.722656 -118.078125 113.265625 -109.265625 C 107.816406 -100.453125 99.289062 -92.332031 87.6875 -84.90625 C 76.09375 -77.476562 61.828125 -72.144531 44.890625 -68.90625 C 44.191406 -59.851562 43.84375 -54.164062 43.84375 -51.84375 C 43.84375 -40.019531 45.695312 -30.566406 49.40625 -23.484375 C 53.125 -16.410156 58.113281 -12.875 64.375 -12.875 C 70.632812 -12.875 76.722656 -14.960938 82.640625 -19.140625 C 88.554688 -23.316406 94.53125 -28.535156 100.5625 -34.796875 L 105.09375 -30.96875 C 92.332031 -17.75 82.238281 -8.585938 74.8125 -3.484375 C 67.394531 1.617188 59.273438 4.171875 50.453125 4.171875 C 39.554688 4.171875 31.03125 -0.175781 24.875 -8.875 C 18.726562 -17.570312 15.65625 -29.34375 15.65625 -44.1875 C 15.65625 -59.039062 19.367188 -75.515625 26.796875 -93.609375 C 34.222656 -111.703125 43.96875 -126.953125 56.03125 -139.359375 C 68.09375 -151.773438 80.96875 -157.984375 94.65625 -157.984375 Z M 46.625 -76.203125 C 57.53125 -78.296875 66.925781 -82.765625 74.8125 -89.609375 C 82.695312 -96.453125 88.550781 -104.164062 92.375 -112.75 C 96.207031 -121.332031 98.125 -129.453125 98.125 -137.109375 C 98.125 -141.046875 97.3125 -144.234375 95.6875 -146.671875 C 94.070312 -149.109375 91.523438 -150.328125 88.046875 -150.328125 C 78.992188 -150.328125 70.695312 -142.320312 63.15625 -126.3125 C 55.613281 -110.3125 50.101562 -93.609375 46.625 -76.203125 Z M 46.625 -76.203125 "/></g></g></g><g fill="#000000" fill-opacity="1"><g transform="translate(473.088844, 936.992299)"><g><path d="M 80.734375 -157.984375 C 87.460938 -157.984375 92.390625 -155.601562 95.515625 -150.84375 C 98.648438 -146.09375 100.679688 -139.191406 101.609375 -130.140625 L 101.609375 -129.796875 L 102.3125 -129.796875 L 107.53125 -152.765625 L 132.578125 -157.984375 L 105.4375 -38.96875 C 103.113281 -30.851562 101.953125 -24.472656 101.953125 -19.828125 C 101.953125 -18.671875 102.242188 -17.628906 102.828125 -16.703125 C 103.410156 -15.773438 104.164062 -15.3125 105.09375 -15.3125 C 107.175781 -15.3125 109.550781 -16.757812 112.21875 -19.65625 C 114.894531 -22.5625 119.015625 -27.84375 124.578125 -35.5 L 129.109375 -32.359375 C 120.054688 -19.367188 112.457031 -10.03125 106.3125 -4.34375 C 100.164062 1.332031 94.65625 4.171875 89.78125 4.171875 C 86.070312 4.171875 83.171875 2.664062 81.078125 -0.34375 C 78.992188 -3.363281 77.953125 -7.425781 77.953125 -12.53125 C 77.953125 -16.007812 78.472656 -21.113281 79.515625 -27.84375 C 80.554688 -34.570312 81.773438 -40.71875 83.171875 -46.28125 L 82.46875 -46.984375 C 73.65625 -28.648438 65.535156 -15.539062 58.109375 -7.65625 C 50.691406 0.226562 43.269531 4.171875 35.84375 4.171875 C 27.488281 4.171875 20.757812 0.34375 15.65625 -7.3125 C 10.550781 -14.96875 8 -25.289062 8 -38.28125 C 8 -55.21875 12.054688 -73.078125 20.171875 -91.859375 C 28.296875 -110.648438 38.15625 -126.367188 49.75 -139.015625 C 61.351562 -151.660156 71.679688 -157.984375 80.734375 -157.984375 Z M 34.796875 -45.59375 C 34.796875 -27.488281 39.320312 -18.4375 48.375 -18.4375 C 53.238281 -18.4375 58.628906 -21.972656 64.546875 -29.046875 C 70.460938 -36.128906 75.742188 -45.125 80.390625 -56.03125 C 85.253906 -67.851562 89.253906 -80.375 92.390625 -93.59375 C 95.523438 -106.820312 97.09375 -117.726562 97.09375 -126.3125 C 97.09375 -133.039062 95.640625 -138.722656 92.734375 -143.359375 C 89.835938 -148.003906 85.953125 -150.328125 81.078125 -150.328125 C 74.117188 -150.328125 66.984375 -144.523438 59.671875 -132.921875 C 52.367188 -121.328125 46.394531 -107.234375 41.75 -90.640625 C 37.113281 -74.054688 34.796875 -59.039062 34.796875 -45.59375 Z M 34.796875 -45.59375 "/></g></g></g><g fill="#000000" fill-opacity="1"><g transform="translate(585.833017, 936.992299)"><g><path d="M 64.03125 -157.984375 L 49.765625 -75.859375 L 50.453125 -75.171875 C 59.273438 -98.597656 66.816406 -116.34375 73.078125 -128.40625 C 79.335938 -140.46875 84.554688 -148.410156 88.734375 -152.234375 C 92.910156 -156.066406 97.203125 -157.984375 101.609375 -157.984375 C 104.859375 -157.984375 107.410156 -156.765625 109.265625 -154.328125 C 111.117188 -151.890625 112.046875 -148.46875 112.046875 -144.0625 C 112.046875 -136.175781 110.535156 -129.503906 107.515625 -124.046875 C 104.503906 -118.597656 100.796875 -115.875 96.390625 -115.875 C 94.304688 -115.875 92.859375 -116.453125 92.046875 -117.609375 C 91.234375 -118.773438 90.476562 -120.519531 89.78125 -122.84375 C 88.851562 -126.78125 87.226562 -128.75 84.90625 -128.75 C 82.582031 -128.75 80.085938 -126.425781 77.421875 -121.78125 C 74.753906 -117.144531 72.550781 -112.738281 70.8125 -108.5625 C 69.070312 -104.394531 67.972656 -101.726562 67.515625 -100.5625 C 62.640625 -89.664062 58.285156 -78.9375 54.453125 -68.375 C 50.628906 -57.820312 48.140625 -49.53125 46.984375 -43.5 L 38.625 0 L 12.875 0 L 33.0625 -115.53125 C 34.445312 -122.957031 35.140625 -128.175781 35.140625 -131.1875 C 35.140625 -138.613281 30.734375 -142.328125 21.921875 -142.328125 L 23.3125 -147.890625 L 58.46875 -157.984375 Z M 64.03125 -157.984375 "/></g></g></g><g fill="#000000" fill-opacity="1"><g transform="translate(662.387622, 936.992299)"><g><path d="M 52.890625 -77.953125 L 53.59375 -77.25 C 82.125 -131.070312 106.25 -157.984375 125.96875 -157.984375 C 131.070312 -157.984375 135.1875 -156.125 138.3125 -152.40625 C 141.445312 -148.695312 143.015625 -143.710938 143.015625 -137.453125 C 143.015625 -130.023438 140.929688 -117.382812 136.765625 -99.53125 L 125.625 -51.84375 C 124.457031 -46.28125 123.410156 -41.875 122.484375 -38.625 C 120.171875 -28.414062 119.015625 -22.035156 119.015625 -19.484375 C 119.015625 -16.003906 120.171875 -14.265625 122.484375 -14.265625 C 124.578125 -14.265625 127.128906 -15.828125 130.140625 -18.953125 C 133.160156 -22.085938 137.453125 -27.832031 143.015625 -36.1875 L 147.203125 -32.703125 C 137.921875 -19.710938 130.085938 -10.316406 123.703125 -4.515625 C 117.328125 1.273438 111.125 4.171875 105.09375 4.171875 C 100.6875 4.171875 97.320312 2.722656 95 -0.171875 C 92.675781 -3.078125 91.515625 -6.613281 91.515625 -10.78125 C 91.515625 -14.957031 92.5625 -21.222656 94.65625 -29.578125 L 112.75 -107.171875 C 113.675781 -110.191406 114.488281 -113.789062 115.1875 -117.96875 C 115.882812 -122.144531 116.234375 -125.160156 116.234375 -127.015625 C 116.234375 -129.796875 115.59375 -132.054688 114.3125 -133.796875 C 113.039062 -135.535156 111.472656 -136.40625 109.609375 -136.40625 C 105.429688 -136.40625 100.035156 -132.984375 93.421875 -126.140625 C 86.816406 -119.296875 79.6875 -109.726562 72.03125 -97.4375 C 63.914062 -84.207031 56.898438 -70.109375 50.984375 -55.140625 C 45.066406 -40.179688 39.785156 -21.800781 35.140625 0 L 9.390625 0 L 36.53125 -117.96875 C 38.394531 -126.550781 39.328125 -131.882812 39.328125 -133.96875 C 39.328125 -138.144531 37.929688 -140.988281 35.140625 -142.5 C 32.359375 -144.007812 28.53125 -144.765625 23.65625 -144.765625 L 25.0625 -150.328125 L 65.765625 -157.984375 L 71.6875 -157.984375 Z M 52.890625 -77.953125 "/></g></g></g><g fill="#000000" fill-opacity="1"><g transform="translate(793.226535, 936.992299)"><g><path d="M 73.765625 -226.890625 C 78.640625 -226.890625 82.757812 -225.207031 86.125 -221.84375 C 89.488281 -218.476562 91.171875 -214.359375 91.171875 -209.484375 C 91.171875 -204.609375 89.488281 -200.488281 86.125 -197.125 C 82.757812 -193.769531 78.640625 -192.09375 73.765625 -192.09375 C 68.898438 -192.09375 64.785156 -193.769531 61.421875 -197.125 C 58.054688 -200.488281 56.375 -204.609375 56.375 -209.484375 C 56.375 -214.359375 58.054688 -218.476562 61.421875 -221.84375 C 64.785156 -225.207031 68.898438 -226.890625 73.765625 -226.890625 Z M 75.859375 -157.984375 L 46.984375 -32.359375 C 45.359375 -25.867188 44.546875 -21.925781 44.546875 -20.53125 C 44.546875 -18.445312 44.953125 -16.9375 45.765625 -16 C 46.578125 -15.070312 47.445312 -14.609375 48.375 -14.609375 C 50.457031 -14.609375 53.757812 -16.753906 58.28125 -21.046875 C 62.8125 -25.335938 67.394531 -30.734375 72.03125 -37.234375 L 76.90625 -34.109375 C 68.78125 -22.972656 60.71875 -13.804688 52.71875 -6.609375 C 44.71875 0.578125 37.582031 4.171875 31.3125 4.171875 C 27.144531 4.171875 23.898438 2.78125 21.578125 0 C 19.253906 -2.78125 18.09375 -6.492188 18.09375 -11.140625 C 18.09375 -16.472656 19.019531 -22.96875 20.875 -30.625 C 22.726562 -38.28125 23.65625 -42.335938 23.65625 -42.796875 L 38.28125 -107.171875 C 39.90625 -113.441406 41.125 -118.664062 41.9375 -122.84375 C 42.75 -127.019531 43.15625 -130.265625 43.15625 -132.578125 C 43.15625 -139.773438 39.554688 -143.375 32.359375 -143.375 C 31.203125 -143.375 27.835938 -143.023438 22.265625 -142.328125 L 23.65625 -147.890625 L 70.296875 -157.984375 Z M 75.859375 -157.984375 "/></g></g></g><g fill="#000000" fill-opacity="1"><g transform="translate(855.166029, 936.992299)"><g><path d="M 52.890625 -77.953125 L 53.59375 -77.25 C 82.125 -131.070312 106.25 -157.984375 125.96875 -157.984375 C 131.070312 -157.984375 135.1875 -156.125 138.3125 -152.40625 C 141.445312 -148.695312 143.015625 -143.710938 143.015625 -137.453125 C 143.015625 -130.023438 140.929688 -117.382812 136.765625 -99.53125 L 125.625 -51.84375 C 124.457031 -46.28125 123.410156 -41.875 122.484375 -38.625 C 120.171875 -28.414062 119.015625 -22.035156 119.015625 -19.484375 C 119.015625 -16.003906 120.171875 -14.265625 122.484375 -14.265625 C 124.578125 -14.265625 127.128906 -15.828125 130.140625 -18.953125 C 133.160156 -22.085938 137.453125 -27.832031 143.015625 -36.1875 L 147.203125 -32.703125 C 137.921875 -19.710938 130.085938 -10.316406 123.703125 -4.515625 C 117.328125 1.273438 111.125 4.171875 105.09375 4.171875 C 100.6875 4.171875 97.320312 2.722656 95 -0.171875 C 92.675781 -3.078125 91.515625 -6.613281 91.515625 -10.78125 C 91.515625 -14.957031 92.5625 -21.222656 94.65625 -29.578125 L 112.75 -107.171875 C 113.675781 -110.191406 114.488281 -113.789062 115.1875 -117.96875 C 115.882812 -122.144531 116.234375 -125.160156 116.234375 -127.015625 C 116.234375 -129.796875 115.59375 -132.054688 114.3125 -133.796875 C 113.039062 -135.535156 111.472656 -136.40625 109.609375 -136.40625 C 105.429688 -136.40625 100.035156 -132.984375 93.421875 -126.140625 C 86.816406 -119.296875 79.6875 -109.726562 72.03125 -97.4375 C 63.914062 -84.207031 56.898438 -70.109375 50.984375 -55.140625 C 45.066406 -40.179688 39.785156 -21.800781 35.140625 0 L 9.390625 0 L 36.53125 -117.96875 C 38.394531 -126.550781 39.328125 -131.882812 39.328125 -133.96875 C 39.328125 -138.144531 37.929688 -140.988281 35.140625 -142.5 C 32.359375 -144.007812 28.53125 -144.765625 23.65625 -144.765625 L 25.0625 -150.328125 L 65.765625 -157.984375 L 71.6875 -157.984375 Z M 52.890625 -77.953125 "/></g></g></g><g fill="#000000" fill-opacity="1"><g transform="translate(986.004995, 936.992299)"><g><path d="M 87.6875 -157.984375 C 97.4375 -157.984375 105.90625 -154.617188 113.09375 -147.890625 L 148.9375 -147.890625 L 144.40625 -128.40625 L 123.875 -128.40625 C 125.738281 -122.144531 126.671875 -116.34375 126.671875 -111 C 126.671875 -98.9375 122.550781 -87.742188 114.3125 -77.421875 C 106.070312 -67.097656 94.300781 -59.269531 79 -53.9375 C 70.644531 -50.914062 64.203125 -47.550781 59.671875 -43.84375 C 55.148438 -40.132812 52.890625 -36.539062 52.890625 -33.0625 C 52.890625 -29.582031 54.742188 -26.910156 58.453125 -25.046875 C 62.171875 -23.191406 68.4375 -21.109375 77.25 -18.796875 C 81.425781 -17.867188 84.554688 -17.054688 86.640625 -16.359375 C 98.472656 -12.878906 107.984375 -8.238281 115.171875 -2.4375 C 122.367188 3.363281 125.96875 11.132812 125.96875 20.875 C 125.96875 30.15625 122.832031 38.679688 116.5625 46.453125 C 110.300781 54.222656 101.894531 60.367188 91.34375 64.890625 C 80.789062 69.421875 69.132812 71.6875 56.375 71.6875 C 40.832031 71.6875 28.128906 68.4375 18.265625 61.9375 C 8.410156 55.445312 3.484375 47.328125 3.484375 37.578125 C 3.484375 24.585938 15.429688 10.085938 39.328125 -5.921875 C 36.078125 -8.003906 33.753906 -10.085938 32.359375 -12.171875 C 30.972656 -14.265625 30.28125 -16.585938 30.28125 -19.140625 C 30.28125 -23.773438 32.425781 -28.703125 36.71875 -33.921875 C 41.007812 -39.148438 48.257812 -45.472656 58.46875 -52.890625 C 48.488281 -54.285156 40.597656 -58.578125 34.796875 -65.765625 C 28.992188 -72.960938 26.09375 -81.78125 26.09375 -92.21875 C 26.09375 -103.125 29.050781 -113.675781 34.96875 -123.875 C 40.882812 -134.082031 48.597656 -142.316406 58.109375 -148.578125 C 67.617188 -154.847656 77.476562 -157.984375 87.6875 -157.984375 Z M 54.28125 -81.078125 C 54.28125 -67.390625 58.691406 -60.546875 67.515625 -60.546875 C 73.304688 -60.546875 78.695312 -64.253906 83.6875 -71.671875 C 88.675781 -79.097656 92.617188 -88.144531 95.515625 -98.8125 C 98.421875 -109.488281 99.875 -119.46875 99.875 -128.75 C 99.875 -135.019531 98.597656 -139.953125 96.046875 -143.546875 C 93.492188 -147.140625 90.015625 -148.9375 85.609375 -148.9375 C 79.109375 -148.9375 73.535156 -144.875 68.890625 -136.75 C 64.253906 -128.632812 60.660156 -119.125 58.109375 -108.21875 C 55.554688 -97.320312 54.28125 -88.273438 54.28125 -81.078125 Z M 22.625 32.359375 C 22.625 41.410156 26.160156 48.953125 33.234375 54.984375 C 40.304688 61.015625 49.0625 64.03125 59.5 64.03125 C 67.851562 64.03125 75.625 62.578125 82.8125 59.671875 C 90.007812 56.773438 95.695312 52.945312 99.875 48.1875 C 104.050781 43.4375 106.140625 38.273438 106.140625 32.703125 C 106.140625 27.609375 103.875 22.796875 99.34375 18.265625 C 94.820312 13.742188 86.644531 9.628906 74.8125 5.921875 L 45.234375 -3.125 C 37.117188 4.289062 31.320312 10.4375 27.84375 15.3125 C 24.363281 20.1875 22.625 25.867188 22.625 32.359375 Z M 22.625 32.359375 "/></g></g></g><g fill="#000000" fill-opacity="1"><g transform="translate(1098.749203, 936.992299)"><g><path d="M 37.9375 -30.96875 C 42.800781 -30.96875 46.914062 -29.285156 50.28125 -25.921875 C 53.644531 -22.554688 55.328125 -18.441406 55.328125 -13.578125 C 55.328125 -8.703125 53.644531 -4.523438 50.28125 -1.046875 C 46.914062 2.429688 42.800781 4.171875 37.9375 4.171875 C 33.0625 4.171875 28.882812 2.429688 25.40625 -1.046875 C 21.925781 -4.523438 20.1875 -8.703125 20.1875 -13.578125 C 20.1875 -18.441406 21.925781 -22.554688 25.40625 -25.921875 C 28.882812 -29.285156 33.0625 -30.96875 37.9375 -30.96875 Z M 37.9375 -30.96875 "/></g></g></g><g fill="#000000" fill-opacity="1"><g transform="translate(350.789061, 673.657451)"><g><path d="M 65.421875 -154.5 C 60.085938 -154.269531 56.257812 -153.515625 53.9375 -152.234375 C 51.613281 -150.960938 50.453125 -148.472656 50.453125 -144.765625 C 50.453125 -141.972656 51.148438 -137.910156 52.546875 -132.578125 L 77.59375 -48.015625 L 78.296875 -48.015625 L 101.265625 -113.4375 L 94.65625 -134.328125 C 92.101562 -141.515625 89.609375 -146.441406 87.171875 -149.109375 C 84.734375 -151.773438 80.847656 -153.570312 75.515625 -154.5 L 75.515625 -160.421875 L 139.1875 -160.421875 L 139.1875 -154.5 C 132.695312 -154.039062 128.117188 -153 125.453125 -151.375 C 122.785156 -149.75 121.453125 -146.734375 121.453125 -142.328125 C 121.453125 -140.703125 121.738281 -138.960938 122.3125 -137.109375 C 122.894531 -135.253906 123.1875 -134.207031 123.1875 -133.96875 L 148.9375 -51.5 L 149.640625 -51.5 L 173.984375 -133.96875 C 174.453125 -135.59375 174.972656 -137.390625 175.546875 -139.359375 C 176.128906 -141.335938 176.421875 -142.90625 176.421875 -144.0625 C 176.421875 -147.78125 175.144531 -150.445312 172.59375 -152.0625 C 170.039062 -153.6875 165.75 -154.5 159.71875 -154.5 L 159.71875 -160.421875 L 201.140625 -160.421875 L 201.140625 -154.5 C 196.960938 -153.8125 193.941406 -152.070312 192.078125 -149.28125 C 190.222656 -146.5 188.253906 -141.394531 186.171875 -133.96875 L 145.109375 4.171875 L 139.1875 4.171875 L 107.53125 -95.703125 L 106.828125 -95.703125 L 71.6875 4.171875 L 65.421875 4.171875 L 23.65625 -135.359375 C 21.570312 -142.085938 19.367188 -146.84375 17.046875 -149.625 C 14.734375 -152.414062 11.253906 -154.039062 6.609375 -154.5 L 6.609375 -160.421875 L 65.421875 -160.421875 Z M 65.421875 -154.5 "/></g></g></g><g fill="#000000" fill-opacity="1"><g transform="translate(532.43261, 673.657451)"><g><path d="M 67.515625 -163.90625 C 82.128906 -163.90625 93.03125 -160.304688 100.21875 -153.109375 C 107.40625 -145.921875 111 -137.222656 111 -127.015625 L 111 -30.96875 C 111 -20.757812 114.015625 -15.65625 120.046875 -15.65625 C 121.910156 -15.65625 123.769531 -16.0625 125.625 -16.875 C 127.476562 -17.6875 129.796875 -19.253906 132.578125 -21.578125 L 132.578125 -15.65625 C 128.171875 -8.925781 123.359375 -3.820312 118.140625 -0.34375 C 112.921875 3.132812 107.757812 4.875 102.65625 4.875 C 96.625 4.875 91.925781 2.554688 88.5625 -2.078125 C 85.195312 -6.722656 83.515625 -14.148438 83.515625 -24.359375 L 82.8125 -24.015625 C 71.914062 -4.753906 58.925781 4.875 43.84375 4.875 C 33.632812 4.875 25.222656 1.394531 18.609375 -5.5625 C 12.003906 -12.519531 8.703125 -21.566406 8.703125 -32.703125 C 8.703125 -42.679688 11.597656 -52.078125 17.390625 -60.890625 C 23.191406 -69.710938 34.796875 -78.644531 52.203125 -87.6875 L 83.171875 -103.703125 L 83.171875 -129.109375 C 83.171875 -136.992188 81.488281 -143.546875 78.125 -148.765625 C 74.757812 -153.984375 69.363281 -156.59375 61.9375 -156.59375 C 55.90625 -156.59375 50.859375 -154.617188 46.796875 -150.671875 C 42.742188 -146.734375 40.71875 -141.976562 40.71875 -136.40625 C 40.71875 -133.851562 41.296875 -131.070312 42.453125 -128.0625 C 43.378906 -124.8125 43.84375 -122.257812 43.84375 -120.40625 C 43.84375 -116.925781 42.453125 -113.910156 39.671875 -111.359375 C 36.890625 -108.804688 33.523438 -107.53125 29.578125 -107.53125 C 24.941406 -107.53125 21.226562 -109.210938 18.4375 -112.578125 C 15.65625 -115.941406 14.265625 -120.289062 14.265625 -125.625 C 14.265625 -132.582031 16.640625 -139.019531 21.390625 -144.9375 C 26.148438 -150.851562 32.585938 -155.492188 40.703125 -158.859375 C 48.828125 -162.222656 57.765625 -163.90625 67.515625 -163.90625 Z M 37.578125 -43.84375 C 37.578125 -35.726562 39.429688 -29 43.140625 -23.65625 C 46.859375 -18.320312 51.5 -15.65625 57.0625 -15.65625 C 65.414062 -15.65625 74.117188 -21.6875 83.171875 -33.75 L 83.171875 -93.953125 C 66.703125 -85.597656 54.984375 -77.765625 48.015625 -70.453125 C 41.054688 -63.148438 37.578125 -54.28125 37.578125 -43.84375 Z M 37.578125 -43.84375 "/></g></g></g><g fill="#000000" fill-opacity="1"><g transform="translate(645.176806, 673.657451)"><g><path d="M 68.203125 -154.5 C 62.640625 -154.269531 58.582031 -153.285156 56.03125 -151.546875 C 53.476562 -149.804688 52.203125 -146.960938 52.203125 -143.015625 C 52.203125 -140.703125 52.488281 -138.554688 53.0625 -136.578125 C 53.644531 -134.609375 54.050781 -133.394531 54.28125 -132.9375 L 81.78125 -49.0625 L 82.46875 -49.0625 L 103.703125 -131.890625 C 103.929688 -132.816406 104.453125 -134.785156 105.265625 -137.796875 C 106.078125 -140.816406 106.484375 -143.488281 106.484375 -145.8125 C 106.484375 -148.820312 105.554688 -150.960938 103.703125 -152.234375 C 101.847656 -153.515625 98.832031 -154.269531 94.65625 -154.5 L 94.65625 -160.421875 L 131.53125 -160.421875 L 131.53125 -154.5 C 126.195312 -152.414062 122.546875 -149.570312 120.578125 -145.96875 C 118.609375 -142.375 116.113281 -134.664062 113.09375 -122.84375 L 78.640625 11.828125 C 73.535156 31.316406 66.804688 46.164062 58.453125 56.375 C 50.109375 66.582031 40.484375 71.6875 29.578125 71.6875 C 23.773438 71.6875 18.898438 70.003906 14.953125 66.640625 C 11.015625 63.273438 9.046875 59.039062 9.046875 53.9375 C 9.046875 49.300781 10.550781 45.414062 13.5625 42.28125 C 16.582031 39.144531 20.414062 37.578125 25.0625 37.578125 C 29.46875 37.578125 33.757812 38.738281 37.9375 41.0625 C 41.644531 42.457031 44.078125 43.15625 45.234375 43.15625 C 50.566406 43.15625 55.320312 39.035156 59.5 30.796875 C 63.675781 22.554688 67.039062 12.289062 69.59375 0 L 28.875 -122.484375 C 25.394531 -133.160156 22.207031 -140.703125 19.3125 -145.109375 C 16.414062 -149.515625 11.71875 -152.644531 5.21875 -154.5 L 5.21875 -160.421875 L 68.203125 -160.421875 Z M 68.203125 -154.5 "/></g></g></g><g fill="#000000" fill-opacity="1"><g transform="translate(757.920968, 673.657451)"><g><path d="M 45.234375 -163.90625 C 50.109375 -163.90625 54.515625 -163.207031 58.453125 -161.8125 C 62.398438 -160.414062 64.722656 -159.601562 65.421875 -159.375 C 69.128906 -157.75 71.679688 -156.9375 73.078125 -156.9375 C 75.398438 -156.9375 77.253906 -158.097656 78.640625 -160.421875 L 84.90625 -160.421875 L 84.90625 -110.65625 L 78.640625 -110.65625 C 75.859375 -124.34375 71.625 -134.898438 65.9375 -142.328125 C 60.257812 -149.753906 53.707031 -153.46875 46.28125 -153.46875 C 41.175781 -153.46875 36.828125 -151.609375 33.234375 -147.890625 C 29.640625 -144.179688 27.84375 -139.773438 27.84375 -134.671875 C 27.84375 -130.960938 28.882812 -127.078125 30.96875 -123.015625 C 33.0625 -118.953125 35.960938 -115.066406 39.671875 -111.359375 L 48.015625 -103.703125 C 60.316406 -93.023438 70.875 -82.929688 79.6875 -73.421875 C 85.257812 -67.160156 88.914062 -61.828125 90.65625 -57.421875 C 92.394531 -53.015625 93.265625 -47.5625 93.265625 -41.0625 C 93.265625 -27.84375 89.144531 -16.878906 80.90625 -8.171875 C 72.664062 0.523438 62.632812 4.875 50.8125 4.875 C 44.539062 4.875 36.882812 2.898438 27.84375 -1.046875 C 23.894531 -2.671875 21.222656 -3.484375 19.828125 -3.484375 C 18.671875 -3.484375 17.628906 -3.132812 16.703125 -2.4375 C 15.773438 -1.738281 15.3125 -0.925781 15.3125 0 L 9.046875 0 L 9.046875 -53.59375 L 14.96875 -53.59375 C 16.351562 -38.976562 20.175781 -27.316406 26.4375 -18.609375 C 32.707031 -9.910156 40.363281 -5.5625 49.40625 -5.5625 C 54.976562 -5.5625 59.734375 -7.878906 63.671875 -12.515625 C 67.617188 -17.160156 69.59375 -22.734375 69.59375 -29.234375 C 69.59375 -38.273438 65.414062 -46.742188 57.0625 -54.640625 L 42.796875 -67.515625 L 26.453125 -82.46875 C 20.878906 -87.570312 16.523438 -93.195312 13.390625 -99.34375 C 10.265625 -105.5 8.703125 -112.632812 8.703125 -120.75 C 8.703125 -133.507812 12.125 -143.890625 18.96875 -151.890625 C 25.8125 -159.898438 34.566406 -163.90625 45.234375 -163.90625 Z M 45.234375 -163.90625 "/></g></g></g><g fill="#000000" fill-opacity="1"><g transform="translate(834.475572, 673.657451)"><g><path d="M 54.984375 -211.21875 L 60.890625 -211.21875 L 60.890625 -160.421875 L 90.46875 -160.421875 L 90.46875 -149.640625 L 60.890625 -149.640625 L 60.890625 -43.5 C 60.890625 -33.519531 62.109375 -26.382812 64.546875 -22.09375 C 66.984375 -17.800781 70.753906 -15.65625 75.859375 -15.65625 C 83.046875 -15.65625 88.613281 -19.832031 92.5625 -28.1875 L 99.171875 -28.1875 C 95.921875 -18.445312 90.875 -10.5 84.03125 -4.34375 C 77.1875 1.800781 69.707031 4.875 61.59375 4.875 C 51.613281 4.875 44.363281 1.101562 39.84375 -6.4375 C 35.320312 -13.976562 33.0625 -22.96875 33.0625 -33.40625 L 33.0625 -149.640625 L 13.21875 -149.640625 L 13.21875 -156.25 C 23.894531 -162.507812 32.476562 -169.929688 38.96875 -178.515625 C 45.46875 -187.097656 50.804688 -198 54.984375 -211.21875 Z M 54.984375 -211.21875 "/></g></g></g><g fill="#000000" fill-opacity="1"><g transform="translate(914.509913, 673.657451)"><g><path d="M 67.515625 -163.90625 C 82.128906 -163.90625 93.03125 -160.304688 100.21875 -153.109375 C 107.40625 -145.921875 111 -137.222656 111 -127.015625 L 111 -30.96875 C 111 -20.757812 114.015625 -15.65625 120.046875 -15.65625 C 121.910156 -15.65625 123.769531 -16.0625 125.625 -16.875 C 127.476562 -17.6875 129.796875 -19.253906 132.578125 -21.578125 L 132.578125 -15.65625 C 128.171875 -8.925781 123.359375 -3.820312 118.140625 -0.34375 C 112.921875 3.132812 107.757812 4.875 102.65625 4.875 C 96.625 4.875 91.925781 2.554688 88.5625 -2.078125 C 85.195312 -6.722656 83.515625 -14.148438 83.515625 -24.359375 L 82.8125 -24.015625 C 71.914062 -4.753906 58.925781 4.875 43.84375 4.875 C 33.632812 4.875 25.222656 1.394531 18.609375 -5.5625 C 12.003906 -12.519531 8.703125 -21.566406 8.703125 -32.703125 C 8.703125 -42.679688 11.597656 -52.078125 17.390625 -60.890625 C 23.191406 -69.710938 34.796875 -78.644531 52.203125 -87.6875 L 83.171875 -103.703125 L 83.171875 -129.109375 C 83.171875 -136.992188 81.488281 -143.546875 78.125 -148.765625 C 74.757812 -153.984375 69.363281 -156.59375 61.9375 -156.59375 C 55.90625 -156.59375 50.859375 -154.617188 46.796875 -150.671875 C 42.742188 -146.734375 40.71875 -141.976562 40.71875 -136.40625 C 40.71875 -133.851562 41.296875 -131.070312 42.453125 -128.0625 C 43.378906 -124.8125 43.84375 -122.257812 43.84375 -120.40625 C 43.84375 -116.925781 42.453125 -113.910156 39.671875 -111.359375 C 36.890625 -108.804688 33.523438 -107.53125 29.578125 -107.53125 C 24.941406 -107.53125 21.226562 -109.210938 18.4375 -112.578125 C 15.65625 -115.941406 14.265625 -120.289062 14.265625 -125.625 C 14.265625 -132.582031 16.640625 -139.019531 21.390625 -144.9375 C 26.148438 -150.851562 32.585938 -155.492188 40.703125 -158.859375 C 48.828125 -162.222656 57.765625 -163.90625 67.515625 -163.90625 Z M 37.578125 -43.84375 C 37.578125 -35.726562 39.429688 -29 43.140625 -23.65625 C 46.859375 -18.320312 51.5 -15.65625 57.0625 -15.65625 C 65.414062 -15.65625 74.117188 -21.6875 83.171875 -33.75 L 83.171875 -93.953125 C 66.703125 -85.597656 54.984375 -77.765625 48.015625 -70.453125 C 41.054688 -63.148438 37.578125 -54.28125 37.578125 -43.84375 Z M 37.578125 -43.84375 "/></g></g></g><g fill="#000000" fill-opacity="1"><g transform="translate(1027.25412, 673.657451)"><g><path d="M 56.03125 -163.90625 L 56.03125 -130.5 L 56.71875 -130.5 C 62.050781 -141.632812 67.617188 -149.984375 73.421875 -155.546875 C 79.222656 -161.117188 85.835938 -163.90625 93.265625 -163.90625 C 99.054688 -163.90625 103.863281 -162.101562 107.6875 -158.5 C 111.519531 -154.90625 113.4375 -150.441406 113.4375 -145.109375 C 113.4375 -140.703125 111.867188 -136.875 108.734375 -133.625 C 105.609375 -130.375 101.84375 -128.75 97.4375 -128.75 C 93.488281 -128.75 89.660156 -130.835938 85.953125 -135.015625 C 84.554688 -136.179688 83.160156 -137.285156 81.765625 -138.328125 C 80.378906 -139.367188 78.875 -139.890625 77.25 -139.890625 C 73.539062 -139.890625 70.117188 -138.148438 66.984375 -134.671875 C 63.859375 -131.191406 60.207031 -125.738281 56.03125 -118.3125 L 56.03125 -30.96875 C 56.03125 -21.457031 57.882812 -14.90625 61.59375 -11.3125 C 65.300781 -7.71875 72.257812 -5.921875 82.46875 -5.921875 L 82.46875 0 L 6.609375 0 L 6.609375 -5.921875 C 14.265625 -5.921875 19.773438 -7.945312 23.140625 -12 C 26.503906 -16.0625 28.1875 -22.5 28.1875 -31.3125 L 28.1875 -125.28125 C 28.1875 -128.988281 27.257812 -132.347656 25.40625 -135.359375 C 23.550781 -138.378906 20.414062 -139.890625 16 -139.890625 C 14.144531 -139.890625 11.828125 -139.425781 9.046875 -138.5 L 7.65625 -144.40625 L 50.109375 -163.90625 Z M 56.03125 -163.90625 "/></g></g></g><g fill="#000000" fill-opacity="1"><g transform="translate(654.200963, 1084.443991)"><g><path d="M 13.125 -29.0625 C 13.800781 -29.0625 14.457031 -28.953125 15.09375 -28.734375 C 15.738281 -28.523438 16.46875 -28.25 17.28125 -27.90625 C 17.957031 -27.601562 18.363281 -27.453125 18.5 -27.453125 C 18.84375 -27.453125 19.117188 -27.566406 19.328125 -27.796875 C 19.535156 -28.035156 19.8125 -28.457031 20.15625 -29.0625 L 21.4375 -29.0625 L 19.90625 -19.390625 L 18.8125 -19.390625 C 18.6875 -22.296875 18.175781 -24.394531 17.28125 -25.6875 C 16.382812 -26.988281 15.234375 -27.640625 13.828125 -27.640625 C 12.890625 -27.640625 12.117188 -27.34375 11.515625 -26.75 C 10.921875 -26.15625 10.625 -25.410156 10.625 -24.515625 C 10.625 -23.785156 10.78125 -23.054688 11.09375 -22.328125 C 11.414062 -21.609375 11.960938 -20.648438 12.734375 -19.453125 L 15.6875 -14.90625 C 16.445312 -13.757812 17.0625 -12.523438 17.53125 -11.203125 C 18 -9.878906 18.234375 -8.660156 18.234375 -7.546875 C 18.234375 -6.140625 17.835938 -4.796875 17.046875 -3.515625 C 16.265625 -2.234375 15.222656 -1.195312 13.921875 -0.40625 C 12.617188 0.375 11.242188 0.765625 9.796875 0.765625 C 8.984375 0.765625 8.296875 0.675781 7.734375 0.5 C 7.179688 0.332031 6.585938 0.0820312 5.953125 -0.25 C 5.867188 -0.289062 5.664062 -0.382812 5.34375 -0.53125 C 5.019531 -0.6875 4.734375 -0.765625 4.484375 -0.765625 C 4.054688 -0.765625 3.703125 -0.644531 3.421875 -0.40625 C 3.148438 -0.175781 2.863281 0.210938 2.5625 0.765625 L 1.46875 0.765625 L 3.078125 -9.34375 L 4.15625 -9.34375 L 4.15625 -8.640625 C 4.15625 -6.160156 4.695312 -4.207031 5.78125 -2.78125 C 6.875 -1.351562 8.164062 -0.640625 9.65625 -0.640625 C 10.8125 -0.640625 11.804688 -1.085938 12.640625 -1.984375 C 13.472656 -2.878906 13.890625 -3.988281 13.890625 -5.3125 C 13.890625 -6.207031 13.726562 -7.082031 13.40625 -7.9375 C 13.082031 -8.789062 12.601562 -9.75 11.96875 -10.8125 L 9.09375 -15.421875 C 7.550781 -17.898438 6.78125 -20.179688 6.78125 -22.265625 C 6.78125 -24.191406 7.390625 -25.804688 8.609375 -27.109375 C 9.828125 -28.410156 11.332031 -29.0625 13.125 -29.0625 Z M 13.125 -29.0625 "/></g></g></g><g fill="#000000" fill-opacity="1"><g transform="translate(671.607699, 1084.443991)"><g><path d="M 13.5625 -41.734375 C 14.457031 -41.734375 15.210938 -41.421875 15.828125 -40.796875 C 16.453125 -40.179688 16.765625 -39.425781 16.765625 -38.53125 C 16.765625 -37.632812 16.453125 -36.875 15.828125 -36.25 C 15.210938 -35.632812 14.457031 -35.328125 13.5625 -35.328125 C 12.664062 -35.328125 11.910156 -35.632812 11.296875 -36.25 C 10.679688 -36.875 10.375 -37.632812 10.375 -38.53125 C 10.375 -39.425781 10.679688 -40.179688 11.296875 -40.796875 C 11.910156 -41.421875 12.664062 -41.734375 13.5625 -41.734375 Z M 13.953125 -29.0625 L 8.640625 -5.953125 C 8.335938 -4.753906 8.1875 -4.03125 8.1875 -3.78125 C 8.1875 -3.394531 8.257812 -3.113281 8.40625 -2.9375 C 8.5625 -2.769531 8.722656 -2.6875 8.890625 -2.6875 C 9.273438 -2.6875 9.882812 -3.082031 10.71875 -3.875 C 11.550781 -4.664062 12.394531 -5.65625 13.25 -6.84375 L 14.140625 -6.265625 C 12.648438 -4.222656 11.164062 -2.539062 9.6875 -1.21875 C 8.21875 0.101562 6.910156 0.765625 5.765625 0.765625 C 4.992188 0.765625 4.394531 0.507812 3.96875 0 C 3.539062 -0.507812 3.328125 -1.191406 3.328125 -2.046875 C 3.328125 -3.023438 3.5 -4.21875 3.84375 -5.625 C 4.1875 -7.039062 4.359375 -7.789062 4.359375 -7.875 L 7.046875 -19.71875 C 7.335938 -20.863281 7.554688 -21.820312 7.703125 -22.59375 C 7.859375 -23.363281 7.9375 -23.960938 7.9375 -24.390625 C 7.9375 -25.710938 7.273438 -26.375 5.953125 -26.375 C 5.734375 -26.375 5.113281 -26.304688 4.09375 -26.171875 L 4.359375 -27.203125 L 12.921875 -29.0625 Z M 13.953125 -29.0625 "/></g></g></g><g fill="#000000" fill-opacity="1"><g transform="translate(682.998804, 1084.443991)"><g><path d="M 9.734375 -14.34375 L 9.859375 -14.203125 C 15.109375 -24.109375 19.546875 -29.0625 23.171875 -29.0625 C 24.109375 -29.0625 24.863281 -28.71875 25.4375 -28.03125 C 26.007812 -27.351562 26.296875 -26.4375 26.296875 -25.28125 C 26.296875 -23.914062 25.914062 -21.585938 25.15625 -18.296875 L 23.109375 -9.53125 C 22.890625 -8.507812 22.695312 -7.703125 22.53125 -7.109375 C 22.101562 -5.222656 21.890625 -4.046875 21.890625 -3.578125 C 21.890625 -2.941406 22.101562 -2.625 22.53125 -2.625 C 22.914062 -2.625 23.382812 -2.910156 23.9375 -3.484375 C 24.488281 -4.066406 25.273438 -5.125 26.296875 -6.65625 L 27.078125 -6.015625 C 25.367188 -3.628906 23.925781 -1.898438 22.75 -0.828125 C 21.570312 0.234375 20.429688 0.765625 19.328125 0.765625 C 18.515625 0.765625 17.894531 0.5 17.46875 -0.03125 C 17.039062 -0.5625 16.828125 -1.210938 16.828125 -1.984375 C 16.828125 -2.753906 17.019531 -3.90625 17.40625 -5.4375 L 20.734375 -19.71875 C 20.898438 -20.269531 21.046875 -20.925781 21.171875 -21.6875 C 21.304688 -22.457031 21.375 -23.015625 21.375 -23.359375 C 21.375 -23.867188 21.253906 -24.285156 21.015625 -24.609375 C 20.785156 -24.929688 20.5 -25.09375 20.15625 -25.09375 C 19.394531 -25.09375 18.40625 -24.460938 17.1875 -23.203125 C 15.96875 -21.941406 14.65625 -20.179688 13.25 -17.921875 C 11.757812 -15.484375 10.46875 -12.890625 9.375 -10.140625 C 8.289062 -7.390625 7.320312 -4.007812 6.46875 0 L 1.734375 0 L 6.71875 -21.703125 C 7.0625 -23.273438 7.234375 -24.253906 7.234375 -24.640625 C 7.234375 -25.410156 6.976562 -25.929688 6.46875 -26.203125 C 5.957031 -26.484375 5.253906 -26.625 4.359375 -26.625 L 4.609375 -27.640625 L 12.09375 -29.0625 L 13.1875 -29.0625 Z M 9.734375 -14.34375 "/></g></g></g><g fill="#000000" fill-opacity="1"><g transform="translate(707.061126, 1084.443991)"><g><path d="M 16.578125 -29.0625 C 17.984375 -29.0625 19.144531 -28.613281 20.0625 -27.71875 C 20.976562 -26.820312 21.4375 -25.625 21.4375 -24.125 C 21.4375 -22.882812 21.125 -21.878906 20.5 -21.109375 C 19.882812 -20.347656 19.109375 -19.96875 18.171875 -19.96875 C 17.535156 -19.96875 17.003906 -20.171875 16.578125 -20.578125 C 16.148438 -20.984375 15.9375 -21.503906 15.9375 -22.140625 C 15.9375 -22.691406 16.03125 -23.109375 16.21875 -23.390625 C 16.414062 -23.671875 16.726562 -24.003906 17.15625 -24.390625 C 17.539062 -24.679688 17.804688 -24.929688 17.953125 -25.140625 C 18.097656 -25.359375 18.171875 -25.660156 18.171875 -26.046875 C 18.171875 -26.472656 17.976562 -26.84375 17.59375 -27.15625 C 17.21875 -27.476562 16.75 -27.640625 16.1875 -27.640625 C 14.738281 -27.640625 13.3125 -26.773438 11.90625 -25.046875 C 10.5 -23.328125 9.359375 -21.085938 8.484375 -18.328125 C 7.609375 -15.578125 7.171875 -12.753906 7.171875 -9.859375 C 7.171875 -6.992188 7.5625 -4.921875 8.34375 -3.640625 C 9.132812 -2.367188 10.109375 -1.734375 11.265625 -1.734375 C 13.398438 -1.734375 15.660156 -3.523438 18.046875 -7.109375 L 18.875 -6.46875 C 17.46875 -4.207031 15.890625 -2.4375 14.140625 -1.15625 C 12.390625 0.125 10.640625 0.765625 8.890625 0.765625 C 6.847656 0.765625 5.175781 -0.0507812 3.875 -1.6875 C 2.570312 -3.332031 1.921875 -5.5 1.921875 -8.1875 C 1.921875 -11.8125 2.707031 -15.222656 4.28125 -18.421875 C 5.863281 -21.628906 7.804688 -24.203125 10.109375 -26.140625 C 12.410156 -28.085938 14.566406 -29.0625 16.578125 -29.0625 Z M 16.578125 -29.0625 "/></g></g></g><g fill="#000000" fill-opacity="1"><g transform="translate(724.467863, 1084.443991)"><g><path d="M 17.40625 -29.0625 C 18.851562 -29.0625 20.035156 -28.644531 20.953125 -27.8125 C 21.878906 -26.976562 22.34375 -25.898438 22.34375 -24.578125 C 22.34375 -23.210938 21.835938 -21.71875 20.828125 -20.09375 C 19.828125 -18.46875 18.257812 -16.972656 16.125 -15.609375 C 13.988281 -14.242188 11.363281 -13.265625 8.25 -12.671875 C 8.125 -11.003906 8.0625 -9.957031 8.0625 -9.53125 C 8.0625 -7.351562 8.398438 -5.613281 9.078125 -4.3125 C 9.765625 -3.019531 10.6875 -2.375 11.84375 -2.375 C 12.988281 -2.375 14.101562 -2.753906 15.1875 -3.515625 C 16.28125 -4.285156 17.382812 -5.25 18.5 -6.40625 L 19.328125 -5.703125 C 16.984375 -3.265625 15.128906 -1.578125 13.765625 -0.640625 C 12.398438 0.296875 10.90625 0.765625 9.28125 0.765625 C 7.269531 0.765625 5.695312 -0.03125 4.5625 -1.625 C 3.4375 -3.226562 2.875 -5.394531 2.875 -8.125 C 2.875 -10.851562 3.554688 -13.878906 4.921875 -17.203125 C 6.285156 -20.535156 8.078125 -23.34375 10.296875 -25.625 C 12.515625 -27.914062 14.882812 -29.0625 17.40625 -29.0625 Z M 8.578125 -14.015625 C 10.578125 -14.398438 12.300781 -15.222656 13.75 -16.484375 C 15.207031 -17.742188 16.285156 -19.160156 16.984375 -20.734375 C 17.691406 -22.316406 18.046875 -23.8125 18.046875 -25.21875 C 18.046875 -25.9375 17.894531 -26.519531 17.59375 -26.96875 C 17.300781 -27.414062 16.832031 -27.640625 16.1875 -27.640625 C 14.53125 -27.640625 13.003906 -26.164062 11.609375 -23.21875 C 10.222656 -20.28125 9.210938 -17.210938 8.578125 -14.015625 Z M 8.578125 -14.015625 "/></g></g></g><g fill="#000000" fill-opacity="1"><g transform="translate(741.874599, 1084.443991)"><g/></g></g><g fill="#000000" fill-opacity="1"><g transform="translate(749.425937, 1084.443991)"><g><path d="M 17.46875 -43.90625 C 20.03125 -43.90625 22.175781 -43 23.90625 -41.1875 C 25.632812 -39.375 26.5 -37.078125 26.5 -34.296875 C 26.5 -31.992188 25.910156 -29.742188 24.734375 -27.546875 C 23.554688 -25.347656 21.796875 -22.757812 19.453125 -19.78125 C 17.316406 -16.957031 15.007812 -14.171875 12.53125 -11.421875 C 10.0625 -8.671875 7.890625 -6.378906 6.015625 -4.546875 L 17.21875 -4.546875 C 18.03125 -4.546875 18.671875 -4.679688 19.140625 -4.953125 C 19.609375 -5.234375 19.988281 -5.609375 20.28125 -6.078125 C 20.582031 -6.546875 20.96875 -7.335938 21.4375 -8.453125 L 22.59375 -8.453125 L 19.515625 0 L -0.1875 0 L 0.0625 -1.09375 C 2.238281 -2.664062 5.035156 -5.414062 8.453125 -9.34375 C 12.585938 -14.082031 15.804688 -18.234375 18.109375 -21.796875 C 20.410156 -25.359375 21.5625 -28.628906 21.5625 -31.609375 C 21.5625 -33.742188 20.859375 -35.535156 19.453125 -36.984375 C 18.046875 -38.441406 16.34375 -39.171875 14.34375 -39.171875 C 12.925781 -39.171875 11.648438 -38.804688 10.515625 -38.078125 C 9.390625 -37.347656 8.53125 -36.367188 7.9375 -35.140625 L 6.90625 -35.140625 C 7.71875 -37.828125 9.082031 -39.957031 11 -41.53125 C 12.925781 -43.113281 15.082031 -43.90625 17.46875 -43.90625 Z M 17.46875 -43.90625 "/></g></g></g><g fill="#000000" fill-opacity="1"><g transform="translate(773.488259, 1084.443991)"><g><path d="M 20.09375 -43.90625 C 21.757812 -43.90625 23.273438 -43.273438 24.640625 -42.015625 C 26.003906 -40.753906 27.082031 -38.960938 27.875 -36.640625 C 28.664062 -34.316406 29.0625 -31.640625 29.0625 -28.609375 C 29.0625 -24.640625 28.3125 -20.328125 26.8125 -15.671875 C 25.320312 -11.023438 23.265625 -7.09375 20.640625 -3.875 C 18.015625 -0.65625 15.082031 0.953125 11.84375 0.953125 C 10.132812 0.953125 8.597656 0.335938 7.234375 -0.890625 C 5.867188 -2.128906 4.800781 -3.878906 4.03125 -6.140625 C 3.257812 -8.398438 2.875 -11.003906 2.875 -13.953125 C 2.875 -17.921875 3.597656 -22.257812 5.046875 -26.96875 C 6.503906 -31.6875 8.546875 -35.6875 11.171875 -38.96875 C 13.796875 -42.257812 16.769531 -43.90625 20.09375 -43.90625 Z M 14.015625 -37.375 C 12.734375 -34.644531 11.625 -31.285156 10.6875 -27.296875 C 9.75 -23.304688 9.035156 -19.5 8.546875 -15.875 C 8.054688 -12.25 7.8125 -9.664062 7.8125 -8.125 C 7.8125 -3.050781 9.257812 -0.515625 12.15625 -0.515625 C 13.1875 -0.515625 14.179688 -0.84375 15.140625 -1.5 C 16.097656 -2.164062 16.851562 -3.070312 17.40625 -4.21875 C 18.769531 -7.039062 19.960938 -10.5625 20.984375 -14.78125 C 22.015625 -19.007812 22.796875 -23.070312 23.328125 -26.96875 C 23.859375 -30.875 24.125 -33.660156 24.125 -35.328125 C 24.125 -37.460938 23.75 -39.179688 23 -40.484375 C 22.257812 -41.785156 21.164062 -42.4375 19.71875 -42.4375 C 18.476562 -42.4375 17.410156 -42.007812 16.515625 -41.15625 C 15.617188 -40.300781 14.785156 -39.039062 14.015625 -37.375 Z M 14.015625 -37.375 "/></g></g></g><g fill="#000000" fill-opacity="1"><g transform="translate(797.550581, 1084.443991)"><g><path d="M 17.46875 -43.90625 C 20.03125 -43.90625 22.175781 -43 23.90625 -41.1875 C 25.632812 -39.375 26.5 -37.078125 26.5 -34.296875 C 26.5 -31.992188 25.910156 -29.742188 24.734375 -27.546875 C 23.554688 -25.347656 21.796875 -22.757812 19.453125 -19.78125 C 17.316406 -16.957031 15.007812 -14.171875 12.53125 -11.421875 C 10.0625 -8.671875 7.890625 -6.378906 6.015625 -4.546875 L 17.21875 -4.546875 C 18.03125 -4.546875 18.671875 -4.679688 19.140625 -4.953125 C 19.609375 -5.234375 19.988281 -5.609375 20.28125 -6.078125 C 20.582031 -6.546875 20.96875 -7.335938 21.4375 -8.453125 L 22.59375 -8.453125 L 19.515625 0 L -0.1875 0 L 0.0625 -1.09375 C 2.238281 -2.664062 5.035156 -5.414062 8.453125 -9.34375 C 12.585938 -14.082031 15.804688 -18.234375 18.109375 -21.796875 C 20.410156 -25.359375 21.5625 -28.628906 21.5625 -31.609375 C 21.5625 -33.742188 20.859375 -35.535156 19.453125 -36.984375 C 18.046875 -38.441406 16.34375 -39.171875 14.34375 -39.171875 C 12.925781 -39.171875 11.648438 -38.804688 10.515625 -38.078125 C 9.390625 -37.347656 8.53125 -36.367188 7.9375 -35.140625 L 6.90625 -35.140625 C 7.71875 -37.828125 9.082031 -39.957031 11 -41.53125 C 12.925781 -43.113281 15.082031 -43.90625 17.46875 -43.90625 Z M 17.46875 -43.90625 "/></g></g></g><g fill="#000000" fill-opacity="1"><g transform="translate(821.612903, 1084.443991)"><g><path d="M 28.671875 -43.90625 L 28.484375 -42.875 C 21.992188 -40.363281 16.660156 -35.007812 12.484375 -26.8125 L 12.609375 -26.6875 C 13.546875 -27.195312 14.410156 -27.566406 15.203125 -27.796875 C 15.992188 -28.035156 16.835938 -28.15625 17.734375 -28.15625 C 19.429688 -28.15625 20.960938 -27.707031 22.328125 -26.8125 C 23.703125 -25.914062 24.78125 -24.664062 25.5625 -23.0625 C 26.351562 -21.46875 26.75 -19.691406 26.75 -17.734375 C 26.75 -14.523438 26.054688 -11.476562 24.671875 -8.59375 C 23.285156 -5.71875 21.492188 -3.40625 19.296875 -1.65625 C 17.097656 0.0820312 14.828125 0.953125 12.484375 0.953125 C 9.617188 0.953125 7.300781 -0.289062 5.53125 -2.78125 C 3.757812 -5.28125 2.875 -8.660156 2.875 -12.921875 C 2.875 -17.617188 4.003906 -22.117188 6.265625 -26.421875 C 8.523438 -30.734375 11.617188 -34.4375 15.546875 -37.53125 C 19.472656 -40.625 23.847656 -42.75 28.671875 -43.90625 Z M 11.390625 -24.453125 C 10.148438 -21.804688 9.15625 -19 8.40625 -16.03125 C 7.664062 -13.0625 7.296875 -10.425781 7.296875 -8.125 C 7.296875 -5.65625 7.722656 -3.769531 8.578125 -2.46875 C 9.429688 -1.164062 10.664062 -0.515625 12.28125 -0.515625 C 14.207031 -0.515625 15.820312 -1.515625 17.125 -3.515625 C 18.425781 -5.523438 19.382812 -7.894531 20 -10.625 C 20.613281 -13.351562 20.921875 -15.765625 20.921875 -17.859375 C 20.921875 -20.328125 20.453125 -22.316406 19.515625 -23.828125 C 18.578125 -25.347656 17.234375 -26.109375 15.484375 -26.109375 C 14.160156 -26.109375 12.796875 -25.554688 11.390625 -24.453125 Z M 11.390625 -24.453125 "/></g></g></g></svg>